<?xml version="1.0" encoding="UTF-8" standalone="no"?>
<svg width="62px" height="20px" viewBox="0 0 62 20" version="1.1" xmlns="http://www.w3.org/2000/svg" xmlns:xlink="http://www.w3.org/1999/xlink" xmlns:sketch="http://www.bohemiancoding.com/sketch/ns">
    <!-- Generator: Sketch 3.0.4 (8054) - http://www.bohemiancoding.com/sketch -->
    <title>Fb Active</title>
    <desc>Created with Sketch.</desc>
    <defs>
        <linearGradient x1="50%" y1="0%" x2="50%" y2="100%" id="linearGradient-1">
            <stop stop-color="#5C7BD4" offset="0%"></stop>
            <stop stop-color="#4D6ABA" offset="100%"></stop>
        </linearGradient>
        <filter x="-50%" y="-50%" width="200%" height="200%" filterUnits="objectBoundingBox" id="filter-2">
            <feOffset dx="0" dy="-1" in="SourceAlpha" result="shadowOffsetOuter1"></feOffset>
            <feGaussianBlur stdDeviation="0" in="shadowOffsetOuter1" result="shadowBlurOuter1"></feGaussianBlur>
            <feColorMatrix values="0 0 0 0 0   0 0 0 0 0   0 0 0 0 0  0 0 0 0.35 0" in="shadowBlurOuter1" type="matrix" result="shadowMatrixOuter1"></feColorMatrix>
            <feMerge>
                <feMergeNode in="shadowMatrixOuter1"></feMergeNode>
                <feMergeNode in="SourceGraphic"></feMergeNode>
            </feMerge>
        </filter>
        <path d="M11.953125,10 L11.953125,8 L13.953125,8 L13.953125,6 L10.953125,6 L10.953125,7 L9.953125,7 L9.953125,10 L7.953125,10 L7.953125,12 L9.953125,12 L9.953125,16 L11.953125,16 L11.953125,12 L13.953125,12 L13.953125,10 L11.953125,10 Z M5.00247329,4 C4.44882258,4 4,4.45576096 4,5.00247329 L4,14.9975267 C4,15.5511774 4.45576096,16 5.00247329,16 L14.9975267,16 C15.5511774,16 16,15.544239 16,14.9975267 L16,5.00247329 C16,4.44882258 15.544239,4 14.9975267,4 L5.00247329,4 Z" id="path-3"></path>
    </defs>
    <g id="Page-1" stroke="none" stroke-width="1" fill="none" fill-rule="evenodd" sketch:type="MSPage">
        <g id="Fb-Active" sketch:type="MSLayerGroup">
            <rect id="Rectangle-1" fill="url(#linearGradient-1)" sketch:type="MSShapeGroup" x="0" y="0" width="62" height="20" rx="2"></rect>
            <text id="Visit-Us" fill="white" filter="url(#filter-2)" sketch:type="MSTextLayer" font-family="Helvetica Neue" font-size="11" font-weight="normal">
                <tspan x="20" y="14" fill="#FFFFFF">Visit Us</tspan>
            </text>
            <mask id="mask-4" sketch:name="Rectangle 2" fill="white">
                <use xlink:href="#path-3"></use>
            </mask>
            <use id="Rectangle-2" fill="#FFFFFF" sketch:type="MSShapeGroup" xlink:href="#path-3"></use>
        </g>
    </g>
</svg>